<?xml version="1.0" encoding="UTF-8"?>
<svg id="Layer_2" xmlns="http://www.w3.org/2000/svg" viewBox="0 0 371.5 100.2">
    <defs>
        <style>
            .cls-1 {
                fill: #162448;
            }

        </style>
    </defs>
    <g id="Layer_1-2">
        <g>
            <path class="cls-1"
                d="M38.39,16.2c0,2.44,.06,4.83,.17,7.16,.07,1.49,.17,2.98,.29,4.46-2.11-1.48-4.42-2.62-6.95-3.4-3.59-1.11-7.31-1.66-11.15-1.66-4.59,0-8.43,.85-11.54,2.55-3.11,1.7-5.42,4.6-6.94,8.71-1.52,4.11-2.27,9.82-2.27,17.14,0,9.4,1.5,16.61,4.49,21.64,3,5.03,8.01,7.55,15.04,7.55,5.18,0,9.54-1.05,13.09-3.16,3.11-1.85,5.71-4.08,7.8-6.7l1.41,8.53h12.98V1.33h-16.42v14.87Zm-7.32,50.1c-1.41,.41-3.07,.61-4.99,.61-2.15,0-3.9-.42-5.27-1.28-1.37-.85-2.37-2.4-3-4.66-.63-2.25-.94-5.57-.94-9.93,0-4.66,.33-8.17,1-10.54,.67-2.37,1.7-3.96,3.11-4.77,1.4-.81,3.25-1.22,5.55-1.22,2.66,0,4.99,.3,6.99,.89,1.48,.44,3.11,.92,4.88,1.44v25.57c-1.12,.76-2.16,1.43-3.11,2.01-1.41,.85-2.81,1.48-4.22,1.89Z" />
            <path class="cls-1"
                d="M80.45,0h-7.1c-3.26,0-4.88,1.66-4.88,4.99v5.88c0,3.33,1.63,4.99,4.88,4.99h7.1c3.25,0,4.88-1.66,4.88-4.99V4.99c0-3.33-1.63-4.99-4.88-4.99Z" />
            <rect class="cls-1" x="68.69" y="24.19" width="16.31" height="54.82" />
            <path class="cls-1"
                d="M123.28,22.75c-6.36,0-11.47,.59-15.31,1.78-3.85,1.18-6.6,3.05-8.27,5.6s-2.5,5.9-2.5,10.04,.83,7.47,2.5,9.99c1.27,1.92,3.17,3.45,5.69,4.59-1.14,.65-2.12,1.52-2.91,2.62-1.07,1.48-1.76,3.14-2.05,4.99-.3,1.85-.13,3.68,.5,5.49,.53,1.54,1.44,2.86,2.69,3.99-1.3,.59-2.42,1.2-3.36,1.83-1.96,1.33-3.35,2.83-4.16,4.49-.81,1.66-1.22,3.64-1.22,5.94,0,3.03,.42,5.57,1.28,7.6,.85,2.03,2.37,3.68,4.55,4.94,2.18,1.26,5.14,2.16,8.88,2.72,3.73,.55,8.49,.83,14.26,.83,7.03,0,12.65-.48,16.87-1.44,4.22-.96,7.29-2.72,9.21-5.27,1.92-2.55,2.88-6.2,2.88-10.93,0-5.03-1.18-8.86-3.55-11.48-2.37-2.62-6.44-4.23-12.21-4.83l-20.2-2.33c-2-.22-3.29-.89-3.88-2-.59-1.11-.69-2.29-.28-3.55,.18-.57,.44-1.06,.75-1.49,2.82,.4,6.06,.6,9.74,.6,6.36,0,11.45-.59,15.26-1.78,3.81-1.18,6.53-3.05,8.16-5.6,1.63-2.55,2.44-5.86,2.44-9.93,0-3.19-.48-5.89-1.43-8.1l6.87-.88,.89-6.99h-18.09c-3.6-.96-8.25-1.44-13.98-1.44Zm10.38,54.87c1.29,.33,2.22,.83,2.77,1.5,.56,.67,.83,1.7,.83,3.11,0,1.63-.39,2.89-1.17,3.77-.78,.89-2.16,1.5-4.16,1.83-2,.33-4.77,.5-8.32,.5s-6.09-.17-8.04-.5c-1.96-.33-3.31-.96-4.05-1.89-.74-.93-1.11-2.24-1.11-3.94,0-1.48,.24-2.66,.72-3.55,.48-.89,1.29-1.79,2.44-2.72,.23-.19,.49-.39,.74-.59l13.96,1.53c2.29,.3,4.09,.61,5.38,.94Zm-2.16-31.68c-1.48,1.11-4.25,1.66-8.32,1.66s-6.88-.55-8.43-1.66c-1.55-1.11-2.33-3.03-2.33-5.77s.78-4.64,2.33-5.71c1.55-1.07,4.36-1.61,8.43-1.61s6.84,.54,8.32,1.61c1.48,1.07,2.22,2.98,2.22,5.71s-.74,4.66-2.22,5.77Z" />
            <path class="cls-1"
                d="M175.54,0h-7.1c-3.26,0-4.88,1.66-4.88,4.99v5.88c0,3.33,1.63,4.99,4.88,4.99h7.1c3.25,0,4.88-1.66,4.88-4.99V4.99c0-3.33-1.63-4.99-4.88-4.99Z" />
            <rect class="cls-1" x="163.78" y="24.19" width="16.31" height="54.82" />
            <path class="cls-1"
                d="M217.71,65.36c-1.92,0-3.4-.48-4.44-1.44-1.04-.96-1.55-2.37-1.55-4.22V2.44h-16.98V63.36c0,4.66,1.42,8.49,4.27,11.49,2.85,3,7.05,4.49,12.59,4.49s11.41-.06,17.14-.17c5.73-.11,11.22-.46,16.48-1.05l-.78-12.76h-26.74Z" />
            <path class="cls-1"
                d="M294.05,24.58c-3.18-1.22-7.06-1.83-11.65-1.83-2.74,0-5.84,.13-9.32,.39-3.48,.26-6.95,.57-10.43,.94-3.48,.37-6.55,.81-9.21,1.33l1.55,10.87c4.44-.29,8.77-.54,12.98-.72,4.22-.18,7.73-.28,10.54-.28,3.4,0,5.71,.59,6.93,1.78,1.22,1.18,1.83,3.07,1.83,5.66v2.55h-19.86c-5.18,0-9.25,1.22-12.21,3.66-2.96,2.44-4.44,5.84-4.44,10.21v5.66c0,3.4,.78,6.25,2.33,8.54,1.55,2.29,3.66,4.03,6.33,5.21,2.66,1.18,5.66,1.78,8.99,1.78s6.44-.56,9.1-1.67,4.99-2.46,6.99-4.05c1.79-1.42,3.27-2.87,4.5-4.36l1.72,8.74h13.09V42.83c0-5.1-.83-9.12-2.5-12.04-1.66-2.92-4.09-4.99-7.27-6.21Zm-7.54,39.11c-2.22,1.48-4.46,2.63-6.71,3.44-2.26,.81-4.35,1.22-6.27,1.22-2.29,0-3.96-.5-4.99-1.5-1.04-1-1.55-2.42-1.55-4.27v-2.66c0-1.63,.42-2.92,1.28-3.88,.85-.96,2.27-1.44,4.27-1.44l14.76-.07v8.61c-.26,.19-.51,.38-.78,.56Z" />
            <path class="cls-1"
                d="M366.79,29.35c-3.15-4.4-8.34-6.6-15.59-6.6-2.66,0-5.25,.46-7.77,1.39-2.52,.93-4.88,2.2-7.1,3.83-1.63,1.19-3.17,2.51-4.64,3.94,.48-1.81,.83-3.66,1.04-5.55,.26-2.33,.39-4.75,.39-7.27l-.11-17.75h-16.42V76.01c1.7,.74,3.73,1.39,6.1,1.94,2.37,.55,4.86,1,7.49,1.33,2.62,.33,5.2,.59,7.71,.78,2.51,.18,4.73,.28,6.66,.28,5.55,0,10.06-.72,13.54-2.16,3.48-1.44,6.19-3.48,8.16-6.1,1.96-2.62,3.33-5.71,4.11-9.27,.78-3.55,1.17-7.43,1.17-11.65,0-10.13-1.57-17.4-4.72-21.8Zm-13.26,32.29c-.67,2.48-1.76,4.22-3.27,5.22-1.52,1-3.53,1.54-6.05,1.61-1.33,.08-2.88,.06-4.66-.05-1.78-.11-3.51-.33-5.22-.67-.47-.09-.91-.2-1.36-.3l-.07-27.23c1.83-1.21,3.53-2.23,5.09-3.04,2-1.03,4.22-1.55,6.66-1.55,2.59,0,4.6,.46,6.05,1.39,1.44,.93,2.44,2.52,3,4.77,.56,2.26,.83,5.42,.83,9.49,0,4.44-.33,7.9-1,10.38Z" />
        </g>
    </g>
</svg>
